<?xml version="1.0" standalone="no"?><!DOCTYPE svg PUBLIC "-//W3C//DTD SVG 1.1//EN" "http://www.w3.org/Graphics/SVG/1.1/DTD/svg11.dtd"><svg t="1703948168090" class="icon" viewBox="0 0 1024 1024" version="1.1" xmlns="http://www.w3.org/2000/svg" p-id="1100" xmlns:xlink="http://www.w3.org/1999/xlink" width="200" height="200"><path d="M512 509.44m-445.4912 0a445.4912 445.4912 0 1 0 890.9824 0 445.4912 445.4912 0 1 0-890.9824 0Z" fill="#EBF3FF" p-id="1101"></path><path d="M618.0864 204.0832h-208.384c-111.9232 0-202.5984 90.7264-202.5984 202.5984v208.384c0 111.9232 90.7264 202.5984 202.5984 202.5984h208.384c111.9232 0 202.5984-90.7264 202.5984-202.5984v-208.384c0-111.872-90.6752-202.5984-202.5984-202.5984z m-13.4656 334.336l-83.6096 131.2256a25.49248 25.49248 0 0 1-21.6064 11.8272c-4.7104 0-9.472-1.28-13.7216-3.9936a25.6 25.6 0 0 1-7.8336-35.328l64.256-100.8128H450.304c-11.776 0-22.4768-6.5024-27.904-16.9984a31.24736 31.24736 0 0 1 2.304-32.5632l98.9696-139.264a25.58976 25.58976 0 1 1 41.728 29.6448L488.6528 490.1376h89.4464c11.4688 0 22.016 6.2464 27.5456 16.2816 5.5296 10.0864 5.12 22.3232-1.024 32z" fill="#5097FF" p-id="1102"></path><path d="M797.7472 410.1632c5.376-26.4192 8.0896-52.736 8.448-78.7456-29.9008-74.5984-102.8096-127.2832-188.1088-127.2832h-208.384c-111.9232 0-202.5984 90.7264-202.5984 202.5984v208.384c0 38.2976 10.5984 74.0864 29.0816 104.6016 20.8384 7.8848 42.496 14.2336 65.024 18.8416 227.7376 46.4384 450.0992-100.608 496.5376-328.3968z m-200.448 126.976l-83.6096 131.2256c-4.864 7.68-19.5072 10.8544-28.672 5.632-12.288-7.0144-14.7968-19.9168-7.2192-31.8464l64.256-100.8128H450.304c-11.776 0-22.4768-6.5024-27.904-16.9984a31.24736 31.24736 0 0 1 2.304-32.5632l98.9696-139.264a25.58976 25.58976 0 1 1 41.728 29.6448L485.4784 496.2816h83.7632c11.4688 0 23.6544-1.1776 29.1328 8.8576 5.5296 10.0864 5.12 22.3232-1.0752 32z" fill="#5E9FFF" p-id="1103"></path><path d="M618.0864 204.0832h-208.384c-111.9232 0-202.5984 90.7264-202.5984 202.5984v187.5456c99.4816 11.4688 196.5568-8.6016 280.1664-52.8896h-36.9664c-11.776 0-22.4768-6.5024-27.904-16.9984a31.24736 31.24736 0 0 1 2.304-32.5632l98.9696-139.264c8.192-11.52 22.9888-14.0288 33.4848-6.656 9.8816 6.912 10.5472 20.6336 2.3552 32.1536l-86.0672 118.272h86.3744c77.8752-62.8736 141.7216-156.3136 168.5504-259.5328-31.744-20.6336-69.632-32.6656-110.2848-32.6656z" fill="#73AAFF" p-id="1104"></path><path d="M207.0528 406.7328v35.4816c160.512-9.5232 305.7664-99.8912 385.6896-238.08H409.7024c-111.9232-0.0512-202.6496 90.6752-202.6496 202.5984z" fill="#86B4FF" p-id="1105"></path></svg>