<?xml version="1.0" encoding="UTF-8"?>
<svg width="77px" height="77px" viewBox="0 0 77 77" version="1.1" xmlns="http://www.w3.org/2000/svg" xmlns:xlink="http://www.w3.org/1999/xlink">
    <title>favicon</title>
    <g id="页面-1" stroke="none" stroke-width="1" fill="none" fill-rule="evenodd">
        <g id="favicon" transform="translate(0.341454, 0.790885)" fill-rule="nonzero">
            <path d="M50.7458913,0 L25.0189633,0 C11.2010114,0 0.00632111252,11.2010114 0.00632111252,25.0126422 L0.00632111252,50.7395702 C0.00632111252,64.5575221 11.2073325,75.7522124 25.0189633,75.7522124 L50.7458913,75.7522124 C64.5638432,75.7522124 75.7585335,64.551201 75.7585335,50.7395702 L75.7585335,25.0126422 C75.7585335,11.2010114 64.5638432,0 50.7458913,0 Z M49.0834387,41.2768647 L38.7610619,57.4778761 C38.181636,58.3903822 37.1744727,58.9416967 36.0935525,58.938071 C35.5120101,58.938071 34.9241466,58.7800253 34.3994943,58.4450063 C32.9287745,57.5071266 32.4959291,55.5550788 33.4323641,54.0834387 L41.3653603,41.6371681 L30.0316056,41.6371681 C28.5777497,41.6371681 27.2566372,40.8343869 26.5865992,39.5385588 C25.9182367,38.2515406 26.0281274,36.6984189 26.8710493,35.5183312 L39.0897598,18.3249052 C39.7435423,17.4046414 40.8386171,16.9030714 41.9624801,17.0091317 C43.0863432,17.115192 44.068253,17.8127697 44.5383335,18.8390938 C45.0084141,19.865418 44.895249,21.0645656 44.2414665,21.9848293 L34.7661188,35.3160556 L45.8091024,35.3160556 C47.2250316,35.3160556 48.5271808,36.0872314 49.2098609,37.3261694 C49.8925411,38.5714286 49.8419722,40.0821745 49.0834387,41.2768647 Z" id="形状" fill="#5097FF"></path>
            <path d="M72.9266751,25.4424779 C73.5903919,22.1807838 73.9254109,18.931732 73.9696587,15.7206068 C70.278129,6.51074589 61.2768647,0.00632111252 50.7458913,0.00632111252 L25.0189633,0.00632111252 C11.2010114,0.00632111252 0.00632111252,11.2073325 0.00632111252,25.0189633 L0.00632111252,50.7458913 C0.00632111252,55.4740834 1.3147914,59.8925411 3.59671302,63.6599241 C6.16940582,64.6333755 8.84323641,65.4171934 11.6245259,65.9860936 C39.7408344,71.7193426 67.193426,53.5651075 72.9266751,25.4424779 Z M48.1795196,41.1188369 L37.8571429,57.3198483 C37.2566372,58.2680152 35.448799,58.6599241 34.3173198,58.0151707 C32.8002528,57.1491783 32.4905183,55.5562579 33.426043,54.0834387 L41.3590392,41.6371681 L30.0316056,41.6371681 C28.5777497,41.6371681 27.2566372,40.8343869 26.5865992,39.5385588 C25.9182367,38.2515406 26.0281274,36.6984189 26.8710493,35.5183312 L39.0897598,18.3249052 C39.7435423,17.4046414 40.8386171,16.9030714 41.9624801,17.0091317 C43.0863432,17.115192 44.068253,17.8127697 44.5383335,18.8390938 C45.0084141,19.865418 44.895249,21.0645656 44.2414665,21.9848293 L34.3742099,36.0745891 L44.7155499,36.0745891 C46.1314791,36.0745891 47.6359039,35.9292035 48.312263,37.1681416 C48.9949431,38.4134008 48.9443742,39.9241466 48.1795196,41.1188369 Z" id="形状" fill="#5E9FFF"></path>
            <path d="M50.7458913,-7.10542736e-15 L25.0189633,-7.10542736e-15 C11.2010114,-7.10542736e-15 0.00632111252,11.2010114 0.00632111252,25.0126422 L0.00632111252,48.1668774 C12.2882427,49.5828066 24.2730721,47.1049305 34.5954488,41.6371681 L30.0316056,41.6371681 C28.5777497,41.6371681 27.2566372,40.8343869 26.5865992,39.5385588 C25.9182367,38.2515406 26.0281274,36.6984189 26.8710493,35.5183312 L39.0897598,18.3249052 C40.1011378,16.9026549 41.9279393,16.5929204 43.2237674,17.5031606 C44.4437421,18.3565107 44.5259166,20.0505689 43.5145386,21.4728192 L32.8887484,36.0745891 L43.5524652,36.0745891 C53.1668774,28.312263 61.0493047,16.7762326 64.3615676,4.03286979 C60.4424779,1.48546144 55.7648546,-7.10542736e-15 50.7458913,-7.10542736e-15 L50.7458913,-7.10542736e-15 Z" id="路径" fill="#73AAFF"></path>
            <path d="M3.55271368e-15,25.0189633 L3.55271368e-15,29.3994943 C19.8166877,28.2237674 37.7496839,17.0670038 47.6169406,0.00631843842 L25.0189633,0.00631843842 C11.2010114,-5.14518983e-15 3.55271368e-15,11.2010114 3.55271368e-15,25.0189633 Z" id="路径" fill="#86B4FF"></path>
        </g>
    </g>
</svg>