<?xml version="1.0" encoding="UTF-8"?>
<svg width="167px" height="43px" viewBox="0 0 167 43" version="1.1" xmlns="http://www.w3.org/2000/svg" xmlns:xlink="http://www.w3.org/1999/xlink">
    <title>Stark Dev</title>
    <g id="页面-1" stroke="none" stroke-width="1" fill="none" fill-rule="evenodd">
        <g id="Stark-Dev" transform="translate(0.900000, 0.020000)" fill="#6396EF" fill-rule="nonzero">
            <path d="M5.16,35.76 C5.72,35.88 6.32,35.98 6.96,36.06 C7.52,36.14 8.11,36.21 8.73,36.27 C9.35,36.33 9.98,36.36 10.62,36.36 C11.74,36.36 12.83,36.23 13.89,35.97 C14.95,35.71 15.9,35.28 16.74,34.68 C17.58,34.08 18.25,33.31 18.75,32.37 C19.25,31.43 19.5,30.28 19.5,28.92 C19.5,27.76 19.21,26.66 18.63,25.62 C18.05,24.58 17.31,23.58 16.41,22.62 C15.51,21.66 14.55,20.74 13.53,19.86 C12.51,18.98 11.55,18.09 10.65,17.19 C9.75,16.29 9.01,15.39 8.43,14.49 C7.85,13.59 7.56,12.66 7.56,11.7 C7.56,10.26 8.02,9.15 8.94,8.37 C9.86,7.59 11.34,7.2 13.38,7.2 C13.7,7.2 14.03,7.21 14.37,7.23 C14.71,7.25 15.04,7.28 15.36,7.32 C15.68,7.36 16,7.38 16.32,7.38 L16.32,5.82 C16.04,5.82 15.74,5.8 15.42,5.76 C15.14,5.72 14.83,5.69 14.49,5.67 C14.15,5.65 13.8,5.64 13.44,5.64 C11.28,5.64 9.5,6.13 8.1,7.11 C6.7,8.09 6,9.62 6,11.7 C6,12.82 6.29,13.87 6.87,14.85 C7.45,15.83 8.19,16.79 9.09,17.73 C9.99,18.67 10.95,19.58 11.97,20.46 C12.99,21.34 13.95,22.23 14.85,23.13 C15.75,24.03 16.49,24.96 17.07,25.92 C17.65,26.88 17.94,27.88 17.94,28.92 C17.94,30.84 17.29,32.3 15.99,33.3 C14.69,34.3 12.9,34.8 10.62,34.8 C9.26,34.8 8.02,34.7 6.9,34.5 C6.3,34.42 5.72,34.32 5.16,34.2 L5.16,35.76 Z M0.12,28.56 C1,28.84 1.92,29.06 2.88,29.22 C3.68,29.42 4.59,29.58 5.61,29.7 C6.63,29.82 7.66,29.88 8.7,29.88 C10.54,29.88 11.46,29.2 11.46,27.84 C11.46,27.32 11.18,26.79 10.62,26.25 C10.06,25.71 9.35,25.11 8.49,24.45 C7.63,23.79 6.71,23.06 5.73,22.26 C4.75,21.46 3.83,20.54 2.97,19.5 C2.11,18.46 1.4,17.29 0.84,15.99 C0.28,14.69 0,13.2 0,11.52 C0,9.64 0.34,7.98 1.02,6.54 C1.7,5.1 2.64,3.9 3.84,2.94 C5.04,1.98 6.45,1.25 8.07,0.75 C9.69,0.25 11.42,0 13.26,0 C14.22,0 15.18,0.05 16.14,0.15 C17.1,0.25 17.96,0.34 18.72,0.42 C19.6,0.54 20.46,0.66 21.3,0.78 L21.3,12 C20.98,11.96 20.62,11.92 20.22,11.88 C19.9,11.84 19.54,11.8 19.14,11.76 C18.74,11.72 18.32,11.7 17.88,11.7 C17.64,11.7 17.34,11.71 16.98,11.73 C16.62,11.75 16.28,11.8 15.96,11.88 C15.64,11.96 15.36,12.1 15.12,12.3 C14.88,12.5 14.76,12.78 14.76,13.14 C14.76,13.46 15.03,13.86 15.57,14.34 C16.11,14.82 16.77,15.38 17.55,16.02 C18.33,16.66 19.19,17.4 20.13,18.24 C21.07,19.08 21.93,20.04 22.71,21.12 C23.49,22.2 24.15,23.42 24.69,24.78 C25.23,26.14 25.5,27.66 25.5,29.34 C25.5,31.1 25.22,32.75 24.66,34.29 C24.1,35.83 23.23,37.17 22.05,38.31 C20.87,39.45 19.36,40.35 17.52,41.01 C15.68,41.67 13.5,42 10.98,42 C9.46,42 8.05,41.93 6.75,41.79 C5.45,41.65 4.3,41.48 3.3,41.28 C2.14,41.08 1.08,40.84 0.12,40.56 L0.12,28.56 Z" id="形状"></path>
            <path d="M33.48,12.48 L26.1,12.48 L26.1,1.98 L54.06,1.98 L54.06,12.48 L46.68,12.48 L46.68,42 L33.48,42 L33.48,12.48 Z M40.86,37.2 L40.86,8.22 L49.44,8.22 L49.44,6.78 L30.72,6.78 L30.72,8.22 L39.3,8.22 L39.3,37.2 L40.86,37.2 Z" id="形状"></path>
            <path d="M68.04,1.98 L77.64,1.98 L92.82,42 L80.22,42 L78.9,38.4 L66.78,38.4 L65.46,42 L52.86,42 L68.04,1.98 Z M75.54,29.58 L72.84,22.56 L70.14,29.58 L75.54,29.58 Z M61.8,37.2 L62.94,34.2 L82.74,34.2 L83.88,37.2 L85.56,37.2 L73.98,6.78 L71.7,6.78 L60.12,37.2 L61.8,37.2 Z M72.84,8.22 L82.2,32.76 L63.48,32.76 L72.84,8.22 Z" id="形状"></path>
            <path d="M106.2,28.08 C107.76,28.08 109.28,27.92 110.76,27.6 L116.46,37.2 L118.32,37.2 L112.32,27.12 C114.48,26.36 116.2,25.19 117.48,23.61 C118.76,22.03 119.4,19.98 119.4,17.46 C119.4,15.7 119.06,14.16 118.38,12.84 C117.7,11.52 116.77,10.41 115.59,9.51 C114.41,8.61 113.02,7.93 111.42,7.47 C109.82,7.01 108.08,6.78 106.2,6.78 L99.72,6.78 L99.72,37.2 L101.28,37.2 L101.28,28.08 L106.2,28.08 Z M101.28,26.64 L101.28,8.22 L106.2,8.22 C109.84,8.22 112.69,9.02 114.75,10.62 C116.81,12.22 117.84,14.5 117.84,17.46 C117.84,20.42 116.81,22.69 114.75,24.27 C112.69,25.85 109.84,26.64 106.2,26.64 L101.28,26.64 Z M93.72,1.98 L107.52,1.98 C110.08,1.98 112.45,2.32 114.63,3 C116.81,3.68 118.7,4.68 120.3,6 C121.9,7.32 123.15,8.95 124.05,10.89 C124.95,12.83 125.4,15.06 125.4,17.58 C125.4,19.58 125.12,21.28 124.56,22.68 C124,24.08 123.38,25.24 122.7,26.16 C121.9,27.2 121,28.08 120,28.8 L127.5,42 L112.5,42 L106.5,31.86 L106.5,42 L93.72,42 L93.72,1.98 Z M106.5,21.66 L107.16,21.66 C108.68,21.66 109.97,21.32 111.03,20.64 C112.09,19.96 112.62,18.82 112.62,17.22 C112.62,15.62 112.09,14.48 111.03,13.8 C109.97,13.12 108.68,12.78 107.16,12.78 L106.5,12.78 L106.5,21.66 Z" id="形状"></path>
            <path d="M128.7,1.98 L141.66,1.98 L141.66,11.22 L149.22,1.98 L164.88,1.98 L150.78,20.28 L165.6,42 L150.18,42 L141.66,29.64 L141.66,42 L128.7,42 L128.7,1.98 Z M136.26,37.2 L136.26,29.1 L142.5,21.36 L153.42,37.2 L155.28,37.2 L143.58,20.1 L154.32,6.78 L152.4,6.78 L136.26,26.7 L136.26,6.78 L134.7,6.78 L134.7,37.2 L136.26,37.2 Z" id="形状"></path>
        </g>
    </g>
</svg>